<svg width="60" height="60" viewBox="0 0 60 60" fill="none" xmlns="http://www.w3.org/2000/svg">
<path d="M15.8618 49.0463L18.0865 54.2872C19.471 57.549 20.1628 59.1787 21.3264 60.1551C22.3499 61.0139 23.6191 61.5287 24.952 61.6219C26.4658 61.7278 28.0959 61.0358 31.3512 59.654L74.4582 41.3562M15.8618 49.0463L3.5009 19.9258M15.8618 49.0463L23.1137 34.9324L23.1198 34.921C24.4316 32.3678 25.0889 31.0887 26.0454 30.2765C27.1754 29.3169 28.6058 28.7856 30.0882 28.7735C31.3449 28.7632 32.6796 29.3024 35.3489 30.3809L35.3756 30.3917C38.0864 31.4869 39.4454 32.036 40.7188 32.0175C42.2257 31.9955 43.6751 31.4334 44.8065 30.4378C45.7656 29.5936 46.4071 28.2702 47.6886 25.621L58.3887 3.50062" stroke="black" stroke-opacity="0.04" stroke-width="7" stroke-linecap="round" stroke-linejoin="round"/>
</svg>
