<svg width="49" height="50" viewBox="0 0 49 50" fill="none" xmlns="http://www.w3.org/2000/svg">
<path d="M0 13.6L21.105 35.84L20.8175 36.08C19.9358 37 19.495 38.14 19.495 39.5C19.495 40.86 20.9358 43 21.8175 43.92L26.4275 47.6L30.4875 44.32L37.215 49.28C37.675 49.76 38.2117 50 38.825 50C39.4383 50 41.975 47.76 42.435 47.28L46.31 43.28C46.77 42.8 49 39.24 49 38.6C49 37.96 48.77 37.4 48.31 36.92L42.64 31.9L46.7 27.62L42.09 22.94C41.2083 22.02 40.1158 21.56 38.8125 21.56C37.5092 21.56 36.4167 22.02 35.535 22.94L35.305 23.24L13.2 0H0V13.6Z" fill="white"/>
<path d="M4 12L26.1325 34.7L25.8888 34.9C25.1413 35.6667 24.7675 36.6167 24.7675 37.75C24.7675 38.8833 25.1413 39.8333 25.8888 40.6L27.2537 42L31.5438 37.6L37.2475 43.4C37.6375 43.8 38.0925 44 38.6125 44C39.1325 44 39.5875 43.8 39.9775 43.4L42.415 40.9C42.805 40.5 43 40.0333 43 39.5C43 38.9667 42.805 38.5 42.415 38.1L36.76 32.25L41.05 27.85L39.685 26.45C38.9375 25.6833 38.0112 25.3 36.9062 25.3C35.8013 25.3 34.875 25.6833 34.1275 26.45L33.9325 26.7L11.8 4H4V12ZM28.8625 31.85L7.9 10.35V8H10.1912L31.1538 29.5L28.8625 31.85Z" fill="url(#paint0_linear_5_2113)"/>
<defs>
<linearGradient id="paint0_linear_5_2113" x1="23.3024" y1="14.4762" x2="23.3024" y2="33.5238" gradientUnits="userSpaceOnUse">
<stop stop-color="#C88FFF"/>
<stop offset="0.504808" stop-color="#A855F7"/>
<stop offset="1" stop-color="#7B00F0"/>
</linearGradient>
</defs>
</svg>
