<svg width="43" height="43" viewBox="0 0 43 43" fill="none" xmlns="http://www.w3.org/2000/svg">
<path d="M15.5023 41.4402C13.8212 41.036 9.37179 38.178 9.37179 38.178L8.26923 37.0727C7.3322 36.1027 3.10047 32.4409 1.86028 30.0429C0.620093 27.6449 0 24.8562 0 21.6769C0 19.4675 0.468515 17.1773 1.40554 14.8062C2.34257 12.4352 4.05127 10.0372 6.53165 7.61221C8.46082 5.72615 10.9412 4.24424 13.9728 3.16649C17.0043 2.08873 20.2012 1.30736 23.5635 0.822375C26.9258 0.337387 30.3019 0.0814202 33.6917 0.0544764C37.0816 0.0275326 39.6397 -0.0533114 42.3405 0.0544638C42.6161 5.60489 43.0482 10.5087 42.6624 14.5233C42.2766 18.5379 41.7116 21.9598 40.9675 24.7889C40.2234 27.618 39.3414 29.9082 38.3217 31.6596C37.302 33.4109 36.2961 34.7716 35.304 35.7415C33.0441 37.9509 30.6739 39.5541 28.1936 40.551C25.7132 41.5479 23.2053 42.0464 20.6698 42.0464C18.9059 42.0464 17.1835 41.8443 15.5023 41.4402Z" fill="white"/>
<path d="M13.3723 34.1756C14.5247 34.83 15.7069 35.3015 16.9189 35.5902C18.1309 35.8789 19.3727 36.0232 20.6443 36.0232C22.4722 36.0232 24.2802 35.6671 26.0684 34.9551C27.8566 34.243 29.5653 33.0979 31.1945 31.5197C31.9098 30.8269 32.635 29.855 33.3701 28.604C34.1052 27.3531 34.741 25.7172 35.2775 23.6964C35.8139 21.6756 36.2212 19.2314 36.4994 16.3638C36.7776 13.4962 36.8173 10.0802 36.6186 6.11557C34.6715 6.03859 32.476 6.00972 30.0322 6.02897C27.5883 6.04821 25.1544 6.23105 22.7305 6.57747C20.3065 6.92389 18.0017 7.48201 15.8162 8.25183C13.6306 9.02165 11.8425 10.0802 10.4517 11.4273C8.66348 13.1595 7.43163 14.8723 6.7561 16.5659C6.08056 18.2595 5.7428 19.8954 5.7428 21.4735C5.7428 23.7445 6.18984 25.7364 7.08393 27.4493C7.97802 29.1621 8.76283 30.365 9.43836 31.0578C11.1073 27.9785 13.3127 25.0243 16.0546 22.1952C18.7965 19.3661 21.9953 17.0471 25.6511 15.238C22.7901 17.6629 20.2966 20.4054 18.1706 23.4655C16.0447 26.5255 14.4452 30.0956 13.3723 34.1756Z" stroke="url(#paint0_linear_5_2104)" stroke-width="4" stroke-linecap="round" stroke-linejoin="round"/>
<defs>
<linearGradient id="paint0_linear_5_2104" x1="21.2349" y1="12.6852" x2="21.2349" y2="29.3561" gradientUnits="userSpaceOnUse">
<stop stop-color="#00E0C8"/>
<stop offset="0.5" stop-color="#14B8A6"/>
<stop offset="1" stop-color="#009484"/>
</linearGradient>
</defs>
</svg>
