<svg width="54" height="52" viewBox="0 0 54 52" fill="none" xmlns="http://www.w3.org/2000/svg">
<path d="M51.0352 14.5L41.7754 23.0332C42.1144 22.9784 42.4662 22.9502 42.8311 22.9502C44.5027 22.9502 45.9043 23.5248 47.0352 24.6748L51.0996 28.7754L45.6094 34.375L50.165 39.1504C50.7548 39.7503 51.0498 40.4502 51.0498 41.25C51.0498 42.0498 50.7548 42.7497 50.165 43.3496L44.4775 49.0996C43.8875 49.6996 43.1988 50 42.4121 50C41.6255 50 40.9376 49.6996 40.3477 49.0996L35.7188 45.4004L30.2285 50L26.5488 46.2891L22.8711 50L17.3809 45.4004L12.752 49.0996C12.162 49.6996 11.4741 50 10.6875 50C9.90083 50 9.21207 49.6996 8.62207 49.0996L2.93457 43.3496C2.34478 42.7497 2.0498 42.0499 2.0498 41.25C2.04981 40.4501 2.34478 39.7503 2.93457 39.1504L7.49023 34.375L2 28.7754L6.06445 24.6748C7.19529 23.5248 8.59689 22.9502 10.2686 22.9502C10.431 22.9502 10.5907 22.9569 10.748 22.9678L2.06445 14.5V0.5H15.8652L26.8301 12.1455L37.7188 0.5L52.0498 0L51.0352 14.5Z" fill="white"/>
<path d="M40.2973 44.4L34.5936 38.6L30.3036 43L28.9386 41.6C28.1911 40.8333 27.8173 39.8833 27.8173 38.75C27.8173 37.6167 28.1911 36.6667 28.9386 35.9L37.1773 27.45C37.9248 26.6833 38.8511 26.3 39.9561 26.3C41.0611 26.3 41.9873 26.6833 42.7348 27.45L44.0998 28.85L39.8098 33.25L45.4648 39.1C45.8548 39.5 46.0498 39.9667 46.0498 40.5C46.0498 41.0333 45.8548 41.5 45.4648 41.9L43.0273 44.4C42.6373 44.8 42.1823 45 41.6623 45C41.1423 45 40.6873 44.8 40.2973 44.4ZM46.0498 13L23.9173 35.7L24.1611 35.9C24.9086 36.6667 25.2823 37.6167 25.2823 38.75C25.2823 39.8833 24.9086 40.8333 24.1611 41.6L22.7961 43L18.5061 38.6L12.8023 44.4C12.4123 44.8 11.9573 45 11.4373 45C10.9173 45 10.4623 44.8 10.0723 44.4L7.6348 41.9C7.2448 41.5 7.0498 41.0333 7.0498 40.5C7.0498 39.9667 7.2448 39.5 7.6348 39.1L13.2898 33.25L8.9998 28.85L10.3648 27.45C11.1123 26.6833 12.0386 26.3 13.1436 26.3C14.2486 26.3 15.1748 26.6833 15.9223 27.45L16.1173 27.7L38.2498 5H46.0498V13ZM16.7023 22.9L7.0498 13V5H14.8498L24.5023 14.9L21.7236 17.7L13.2411 9H10.9498V11.35L19.4323 20.05L16.7023 22.9ZM21.1873 32.85L42.1498 11.35V9H39.8586L18.8961 30.5L21.1873 32.85Z" fill="url(#paint0_linear_5_2121)"/>
<defs>
<linearGradient id="paint0_linear_5_2121" x1="26.7474" y1="15.4762" x2="26.7474" y2="34.5238" gradientUnits="userSpaceOnUse">
<stop stop-color="#FF75B9"/>
<stop offset="0.504808" stop-color="#EC4899"/>
<stop offset="1" stop-color="#CA126D"/>
</linearGradient>
</defs>
</svg>
