<svg width="55" height="50" viewBox="0 0 55 50" fill="none" xmlns="http://www.w3.org/2000/svg">
<rect x="7.5" y="22.5" width="40" height="23" fill="white" stroke="white"/>
<path d="M43.7559 2C45.2507 2 46.6216 2.46851 47.7754 3.41797C48.8041 4.2646 49.5422 5.34967 50.0078 6.61133L50.0977 6.86621L50.1113 6.9082L52.5664 14.8418L52.5674 14.8438C53.1426 16.7085 53.1711 18.5634 52.4893 20.3047C52.015 21.5157 51.3695 22.6067 50.5508 23.5645V41.333C50.5508 43.1524 49.8784 44.7594 48.5898 46.0449C47.3013 47.3304 45.6926 48 43.873 48H11.127C9.30742 48 7.69873 47.3304 6.41016 46.0449C5.1216 44.7594 4.44922 43.1524 4.44922 41.333V23.6025C3.61573 22.6727 2.97113 21.5767 2.50293 20.3438C1.83349 18.5807 1.85495 16.7166 2.43262 14.8438L2.43359 14.8418L4.88867 6.9082C5.31309 5.53359 6.08616 4.36451 7.19141 3.4502C8.35489 2.48778 9.73382 2 11.2441 2H43.7559ZM27.5283 25.3838C27.0506 25.7167 26.5418 26.0054 26.001 26.2451C24.8544 26.7535 23.6311 27 22.3545 27C20.9919 27 19.6976 26.7649 18.5029 26.2578C17.9332 26.016 17.3945 25.7248 16.8887 25.3857C16.3471 25.7798 15.7843 26.1089 15.1953 26.3525C14.5379 26.6244 13.8456 26.8034 13.127 26.9033V39.333H41.873V26.9043C41.1165 26.7995 40.3908 26.6057 39.708 26.3066C39.1541 26.064 38.624 25.7532 38.1152 25.3857C37.6202 25.7206 37.0961 26.0112 36.541 26.252C35.3839 26.7538 34.1568 27 32.8799 27C31.5746 27 30.3228 26.7575 29.1455 26.2578C28.5747 26.0155 28.035 25.7237 27.5283 25.3838ZM10.8213 17.0566L10.8203 17.0596C10.7772 17.203 10.7408 17.4841 11.041 18.0352C11.1218 18.1834 11.1867 18.2271 11.2246 18.248C11.2737 18.2751 11.4105 18.333 11.7119 18.333C11.8744 18.333 11.9978 18.2962 12.168 18.1328C12.3505 17.9575 12.4843 17.7299 12.541 17.3525L13.498 10.667H12.7334L10.8213 17.0566ZM21.2891 17.1445L21.2861 17.1631C21.219 17.5653 21.2981 17.7968 21.4834 18.0264C21.6705 18.258 21.8304 18.333 22.1201 18.333C22.5163 18.333 22.7017 18.2244 22.8545 18.0615C23.0767 17.8246 23.1611 17.6016 23.1611 17.2998V10.667H22.3096L21.2891 17.1445ZM31.8389 17.2998C31.8389 17.6227 31.9295 17.8537 32.1406 18.0869C32.3255 18.291 32.4579 18.333 32.6455 18.333C33.1894 18.333 33.3482 18.1803 33.4502 18.0459C33.6784 17.745 33.7518 17.465 33.7031 17.0928H33.7021L32.6904 10.667H31.8389V17.2998ZM42.459 17.3525C42.5157 17.7299 42.6495 17.9575 42.832 18.1328C43.0022 18.2962 43.1256 18.333 43.2881 18.333C43.7855 18.333 43.8933 18.2009 44.0039 18.0059C44.3021 17.4796 44.244 17.2481 44.208 17.1455L44.1875 17.083L42.1719 10.667H41.502L42.459 17.3525Z" fill="url(#paint0_linear_24_208)" stroke="white" stroke-width="4" stroke-linejoin="bevel"/>
<defs>
<linearGradient id="paint0_linear_24_208" x1="28" y1="4" x2="28" y2="46" gradientUnits="userSpaceOnUse">
<stop stop-color="#FF75B9"/>
<stop offset="0.504808" stop-color="#EC4899"/>
<stop offset="1" stop-color="#CA126D"/>
</linearGradient>
</defs>
</svg>
