<svg width="17" height="21" viewBox="0 0 17 21" fill="none" xmlns="http://www.w3.org/2000/svg">
<path d="M5.35869 6.57011C5.61479 7.05942 6.21907 7.24848 6.70839 6.99238C7.19771 6.73627 7.38676 6.13199 7.13066 5.64268L6.24468 6.10639L5.35869 6.57011ZM7.09546 5.57542C6.83935 5.0861 6.23507 4.89704 5.74576 5.15315C5.25644 5.40925 5.06738 6.01353 5.32349 6.50285L6.20947 6.03913L7.09546 5.57542ZM7.3578 13.6639C7.6139 14.1532 8.21818 14.3423 8.7075 14.0862C9.19682 13.8301 9.38587 13.2258 9.12977 12.7365L8.24378 13.2002L7.3578 13.6639ZM9.09456 12.6692C8.83846 12.1799 8.23418 11.9908 7.74487 12.2469C7.25555 12.503 7.06649 13.1073 7.3226 13.5966L8.20858 13.1329L9.09456 12.6692ZM11.4563 14.9462C11.7124 15.4355 12.3167 15.6245 12.806 15.3684C13.2954 15.1123 13.4844 14.508 13.2283 14.0187L12.3423 14.4824L11.4563 14.9462ZM13.1931 13.9515C12.937 13.4622 12.3327 13.2731 11.8434 13.5292C11.3541 13.7853 11.165 14.3896 11.4211 14.8789L12.3071 14.4152L13.1931 13.9515ZM7.47601 1.09198C7.93973 1.97796 7.9393 1.97819 7.93887 1.97841C7.93873 1.97848 7.9383 1.97871 7.93802 1.97885C7.93746 1.97914 7.93691 1.97943 7.93636 1.97972C7.93527 1.98028 7.93421 1.98083 7.93317 1.98136C7.93111 1.98242 7.92916 1.98341 7.92732 1.98433C7.92365 1.98618 7.92042 1.98777 7.9176 1.98913C7.91198 1.99183 7.90785 1.9937 7.90502 1.99493C7.89966 1.99727 7.89791 1.99779 7.89836 1.99764C7.90383 1.99585 7.89701 1.99945 7.87485 1.99986C7.84832 2.00036 7.7848 1.99578 7.71208 1.95599C7.63275 1.91259 7.6078 1.86314 7.61466 1.87626L8.50065 1.41255L9.38663 0.94883C9.21748 0.625646 8.97645 0.367976 8.672 0.201413C8.37415 0.0384598 8.07647 -0.00421798 7.83778 0.000206971C7.60347 0.00455056 7.4065 0.0541244 7.27486 0.0973169C7.20675 0.119662 7.1497 0.142435 7.10619 0.161393C7.08428 0.17094 7.06536 0.179711 7.04971 0.187246C7.04188 0.19102 7.03482 0.194503 7.02859 0.19764C7.02547 0.199209 7.02255 0.200694 7.01983 0.202087C7.01848 0.202784 7.01717 0.203459 7.01591 0.20411C7.01529 0.204435 7.01467 0.204755 7.01407 0.205069C7.01377 0.205225 7.01332 0.205456 7.01317 0.205535C7.01274 0.205764 7.0123 0.205992 7.47601 1.09198ZM1.4226 4.26027L1.88632 5.14626L7.93973 1.97796L7.47601 1.09198L7.0123 0.205992L0.958886 3.37429L1.4226 4.26027ZM1.4226 4.26027C0.958886 3.37429 0.95845 3.37452 0.958012 3.37475C0.957862 3.37482 0.957419 3.37506 0.957119 3.37521C0.956518 3.37553 0.955905 3.37585 0.955279 3.37618C0.954029 3.37685 0.95273 3.37754 0.951383 3.37825C0.948691 3.37969 0.945807 3.38124 0.94274 3.38291C0.936608 3.38625 0.929726 3.39006 0.922159 3.39435C0.907053 3.40291 0.889061 3.41345 0.868728 3.42602C0.82835 3.45097 0.777123 3.48487 0.719947 3.52809C0.609428 3.61164 0.456432 3.74524 0.319321 3.93529C0.179649 4.1289 0.0450611 4.39782 0.00920139 4.73543C-0.027453 5.08053 0.0468973 5.42544 0.216049 5.74862L1.10203 5.28491L1.98802 4.82119C1.98115 4.80807 2.00757 4.85675 1.99801 4.94667C1.98926 5.02911 1.95681 5.08391 1.94129 5.10543C1.92832 5.1234 1.92148 5.12695 1.92607 5.12348C1.92645 5.12319 1.92502 5.12434 1.92005 5.12741C1.91742 5.12903 1.91353 5.13136 1.90811 5.13443C1.90538 5.13598 1.90223 5.13773 1.89863 5.13969C1.89682 5.14068 1.8949 5.14171 1.89285 5.14281C1.89182 5.14335 1.89077 5.14391 1.88968 5.14449C1.88913 5.14478 1.88858 5.14507 1.88802 5.14536C1.88774 5.14551 1.88732 5.14573 1.88718 5.14581C1.88675 5.14603 1.88632 5.14626 1.4226 4.26027ZM8.14269 18.7369L9.02867 18.2732L1.98802 4.82119L1.10203 5.28491L0.216049 5.74862L7.2567 19.2006L8.14269 18.7369ZM9.16732 19.0575L8.70361 18.1715C8.73012 18.1576 8.74361 18.1546 8.74977 18.1533C8.75735 18.1517 8.78055 18.1477 8.81791 18.153C8.85968 18.159 8.91377 18.1763 8.96486 18.2122C9.01669 18.2486 9.03288 18.2813 9.02867 18.2732L8.14269 18.7369L7.2567 19.2006C7.54865 19.7584 8.02814 20.0606 8.53518 20.133C8.98001 20.1965 9.37716 20.0764 9.63104 19.9435L9.16732 19.0575ZM15.2207 15.8892L14.757 15.0032L8.70361 18.1715L9.16732 19.0575L9.63104 19.9435L15.6845 16.7752L15.2207 15.8892ZM8.50065 1.41255L7.61466 1.87626L14.6553 15.3283L15.5413 14.8646L16.4273 14.4009L9.38663 0.94883L8.50065 1.41255ZM15.2207 15.8892L15.6845 16.7752C15.9383 16.6423 16.2634 16.3844 16.4647 15.9827C16.6942 15.5248 16.7192 14.9587 16.4273 14.4009L15.5413 14.8646L14.6553 15.3283C14.6595 15.3363 14.6419 15.3044 14.6416 15.2411C14.6412 15.1787 14.6578 15.1243 14.6767 15.0866C14.6936 15.0529 14.7101 15.0361 14.7157 15.0308C14.7203 15.0264 14.7305 15.0171 14.757 15.0032L15.2207 15.8892ZM5.29496 11.6589L5.75868 12.5449L11.8121 9.37658L11.3484 8.49059L10.8847 7.60461L4.83125 10.7729L5.29496 11.6589ZM6.24468 6.10639L7.13066 5.64268L7.09546 5.57542L6.20947 6.03913L5.32349 6.50285L5.35869 6.57011L6.24468 6.10639ZM8.24378 13.2002L9.12977 12.7365L9.09456 12.6692L8.20858 13.1329L7.3226 13.5966L7.3578 13.6639L8.24378 13.2002ZM12.3423 14.4824L13.2283 14.0187L13.1931 13.9515L12.3071 14.4152L11.4211 14.8789L11.4563 14.9462L12.3423 14.4824Z" fill="url(#paint0_linear_266_235)"/>
<defs>
<linearGradient id="paint0_linear_266_235" x1="4.44931" y1="2.67612" x2="12.194" y2="17.4734" gradientUnits="userSpaceOnUse">
<stop stop-color="#38C1FF"/>
<stop offset="0.5" stop-color="#0EA5E9"/>
<stop offset="1" stop-color="#0078AD"/>
</linearGradient>
</defs>
</svg>
