<svg width="41" height="48" viewBox="0 0 41 48" fill="none" xmlns="http://www.w3.org/2000/svg">
<rect x="-0.0965548" y="11.0595" width="24.058" height="40.9067" rx="6" transform="rotate(-27.6271 -0.0965548 11.0595)" fill="white" stroke="white" stroke-width="4"/>
<path d="M14.0829 16.5235C14.5951 17.5021 15.8037 17.8802 16.7823 17.368C17.7609 16.8558 18.139 15.6473 17.6268 14.6686L15.8549 15.5961L14.0829 16.5235ZM17.5558 14.5329C17.0436 13.5543 15.835 13.1762 14.8564 13.6884C13.8778 14.2006 13.4997 15.4092 14.0119 16.3878L15.7838 15.4604L17.5558 14.5329ZM18.1164 30.8362C18.6286 31.8148 19.8371 32.1929 20.8158 31.6807C21.7944 31.1685 22.1725 29.9599 21.6603 28.9813L19.8883 29.9087L18.1164 30.8362ZM21.5893 28.8456C21.0771 27.867 19.8685 27.4888 18.8899 28.001C17.9112 28.5133 17.5331 29.7218 18.0453 30.7004L19.8173 29.773L21.5893 28.8456ZM26.3857 33.4233C26.8979 34.4019 28.1065 34.7801 29.0851 34.2679C30.0638 33.7556 30.4419 32.5471 29.9297 31.5685L28.1577 32.4959L26.3857 33.4233ZM29.8586 31.4327C29.3464 30.4541 28.1379 30.076 27.1592 30.5882C26.1806 31.1004 25.8025 32.309 26.3147 33.2876L28.0867 32.3602L29.8586 31.4327ZM18.3393 5.47881C19.2667 7.25077 19.2658 7.25122 19.265 7.25167C19.2647 7.25182 19.2638 7.25226 19.2633 7.25256C19.2622 7.25314 19.261 7.25372 19.26 7.25428C19.2578 7.25541 19.2556 7.25651 19.2536 7.25757C19.2495 7.25969 19.2456 7.26166 19.2419 7.2635C19.2346 7.26718 19.2282 7.27034 19.2226 7.27304C19.2114 7.27841 19.2033 7.28208 19.1978 7.28448C19.1874 7.289 19.1844 7.28985 19.1859 7.28936C19.198 7.28537 19.1861 7.29217 19.1436 7.29296C19.0925 7.29391 18.9675 7.2851 18.824 7.2066C18.6673 7.12089 18.6193 7.02383 18.6346 7.05303L20.4066 6.1256L22.1786 5.19817C21.8387 4.54883 21.3547 4.03166 20.7438 3.69744C20.1462 3.37045 19.5487 3.28476 19.0695 3.29365C18.599 3.30237 18.2034 3.40192 17.9389 3.4887C17.8021 3.53359 17.6875 3.57933 17.6001 3.61739C17.5561 3.63656 17.5182 3.65417 17.4868 3.66928C17.4711 3.67685 17.4569 3.68383 17.4444 3.69011C17.4382 3.69326 17.4323 3.69623 17.4269 3.69902C17.4242 3.70042 17.4216 3.70177 17.4191 3.70307C17.4178 3.70372 17.4166 3.70436 17.4154 3.70499C17.4148 3.7053 17.4139 3.70577 17.4136 3.70592C17.4127 3.70638 17.4118 3.70684 18.3393 5.47881ZM6.12568 11.8713L7.05311 13.6432L19.2667 7.25077L18.3393 5.47881L17.4118 3.70684L5.19825 10.0993L6.12568 11.8713ZM6.12568 11.8713C5.19825 10.0993 5.19738 10.0998 5.1965 10.1002C5.1962 10.1004 5.19532 10.1008 5.19471 10.1012C5.19351 10.1018 5.19229 10.1024 5.19103 10.1031C5.18853 10.1044 5.18593 10.1058 5.18324 10.1072C5.17784 10.1101 5.17207 10.1132 5.16592 10.1166C5.15364 10.1233 5.13984 10.1309 5.12466 10.1395C5.09437 10.1567 5.05826 10.1778 5.01743 10.2031C4.93637 10.2531 4.83347 10.3212 4.71862 10.4081C4.49656 10.5759 4.18928 10.8443 3.91396 11.2259C3.63353 11.6146 3.36345 12.1544 3.29149 12.8318C3.21794 13.5243 3.36707 14.2167 3.70692 14.866L5.47889 13.9386L7.25086 13.0112C7.23558 12.982 7.28798 13.0767 7.26912 13.2543C7.25184 13.4169 7.18786 13.5247 7.1579 13.5662C7.13306 13.6006 7.12066 13.6066 7.13086 13.5988C7.13213 13.5979 7.1297 13.5999 7.12008 13.6058C7.11497 13.609 7.10733 13.6136 7.09656 13.6197C7.09115 13.6227 7.08489 13.6262 7.0777 13.6301C7.0741 13.6321 7.07025 13.6342 7.06616 13.6363C7.06412 13.6374 7.06201 13.6386 7.05983 13.6397C7.05875 13.6403 7.05764 13.6409 7.05652 13.6414C7.05596 13.6417 7.05511 13.6422 7.05483 13.6423C7.05397 13.6428 7.05311 13.6432 6.12568 11.8713ZM19.6844 41.0799L21.4563 40.1525L7.25086 13.0112L5.47889 13.9386L3.70692 14.866L17.9124 42.0073L19.6844 41.0799ZM21.7517 41.7267L20.8243 39.9547C20.8763 39.9275 20.902 39.9218 20.9128 39.9196C20.9265 39.9168 20.9712 39.9088 21.0442 39.9193C21.1261 39.931 21.2325 39.965 21.3331 40.0357C21.4351 40.1073 21.466 40.1709 21.4563 40.1525L19.6844 41.0799L17.9124 42.0073C18.4988 43.1277 19.4613 43.7338 20.4788 43.8791C21.3718 44.0066 22.1694 43.7654 22.6791 43.4987L21.7517 41.7267ZM33.9653 35.3342L33.0379 33.5623L20.8243 39.9547L21.7517 41.7267L22.6791 43.4987L34.8927 37.1062L33.9653 35.3342ZM20.4066 6.1256L18.6346 7.05303L32.8401 34.1943L34.6121 33.2669L36.384 32.3394L22.1786 5.19817L20.4066 6.1256ZM33.9653 35.3342L34.8927 37.1062C35.4024 36.8394 36.0552 36.3215 36.4594 35.515C36.9199 34.5961 36.9704 33.4598 36.384 32.3394L34.6121 33.2669L32.8401 34.1943C32.8498 34.2128 32.8151 34.1511 32.8144 34.0265C32.8136 33.9036 32.8463 33.7967 32.8834 33.7228C32.9164 33.6568 32.9484 33.6246 32.9585 33.615C32.9666 33.6074 32.9858 33.5895 33.0379 33.5623L33.9653 35.3342ZM13.9387 26.799L14.8661 28.5709L27.0797 22.1785L26.1523 20.4065L25.2248 18.6345L13.0113 25.027L13.9387 26.799ZM15.8549 15.5961L17.6268 14.6686L17.5558 14.5329L15.7838 15.4604L14.0119 16.3878L14.0829 16.5235L15.8549 15.5961ZM19.8883 29.9087L21.6603 28.9813L21.5893 28.8456L19.8173 29.773L18.0453 30.7004L18.1164 30.8362L19.8883 29.9087ZM28.1577 32.4959L29.9297 31.5685L29.8586 31.4327L28.0867 32.3602L26.3147 33.2876L26.3857 33.4233L28.1577 32.4959Z" fill="url(#paint0_linear_34_149)"/>
<defs>
<linearGradient id="paint0_linear_34_149" x1="12.2325" y1="8.67504" x2="27.8585" y2="38.5305" gradientUnits="userSpaceOnUse">
<stop stop-color="#38C1FF"/>
<stop offset="0.5" stop-color="#0EA5E9"/>
<stop offset="1" stop-color="#0078AD"/>
</linearGradient>
</defs>
</svg>
