<svg width="46" height="50" viewBox="0 0 46 50" fill="none" xmlns="http://www.w3.org/2000/svg">
<path d="M4 12.3475C4 10.0441 5.8673 8.1768 8.17073 8.1768H10.2531C11.4065 8.1768 12.3415 7.24179 12.3415 6.0884V5.85366C12.3415 4.82991 13.1714 4 14.1951 4C15.2189 4 16.0488 4.82991 16.0488 5.85366V6.0884C16.0488 7.24179 16.9838 8.1768 18.1372 8.1768H28.106C29.2594 8.1768 30.1944 7.24179 30.1944 6.0884V5.50038C30.1944 4.67174 30.8661 4 31.6947 4C32.5234 4 33.1951 4.67174 33.1951 5.50038V6.0884C33.1951 7.24179 34.1301 8.1768 35.2835 8.1768H37.5976C40.029 8.1768 42 10.1478 42 12.5792V39C42 42.866 38.866 46 35 46H11C7.13401 46 4 42.866 4 39V12.3475Z" fill="white" stroke="white" stroke-width="8"/>
<path d="M6 18H40M6 18V37.0671C6 39.494 6 40.7068 6.46322 41.6338C6.87068 42.4491 7.52038 43.1127 8.32007 43.5282C9.2283 44 10.4179 44 12.7934 44H33.2066C35.5821 44 36.77 44 37.6782 43.5282C38.4779 43.1127 39.1298 42.4491 39.5372 41.6338C40 40.7077 40 39.4966 40 37.0744V18M6 18V16.2671C6 13.8402 6 12.6258 6.46322 11.6989C6.87068 10.8835 7.52038 10.2211 8.32007 9.80564C9.22919 9.33333 10.4202 9.33333 12.8004 9.33333H14.5M40 18V16.26C40 13.8378 40 12.6249 39.5372 11.6989C39.1298 10.8835 38.4779 10.2211 37.6782 9.80564C36.7691 9.33333 35.5806 9.33333 33.2004 9.33333H31.5M14.5 9.33333H31.5M14.5 9.33333V5M31.5 9.33333V5M29.375 26.6667L20.875 35.3333L16.625 31" stroke="url(#paint0_linear_34_145)" stroke-width="4.5" stroke-linecap="round" stroke-linejoin="round"/>
<defs>
<linearGradient id="paint0_linear_34_145" x1="23" y1="5" x2="23" y2="44" gradientUnits="userSpaceOnUse">
<stop stop-color="#00E0C8"/>
<stop offset="0.5" stop-color="#14B8A6"/>
<stop offset="1" stop-color="#009484"/>
</linearGradient>
</defs>
</svg>
