<svg width="18" height="21" viewBox="0 0 18 21" fill="none" xmlns="http://www.w3.org/2000/svg">
<path d="M15.9844 2.01562H11.8125C11.3906 0.84375 10.3125 0 9 0C7.6875 0 6.60938 0.84375 6.1875 2.01562H2.01562C0.890625 2.01562 0 2.90625 0 4.03125V18C0 19.125 0.890625 20.0156 2.01562 20.0156H15.9844C17.1094 20.0156 18 19.125 18 18V4.03125C18 2.90625 17.1094 2.01562 15.9844 2.01562ZM9 2.01562C9.5625 2.01562 9.98438 2.48438 9.98438 3C9.98438 3.5625 9.5625 4.03125 9 4.03125C8.4375 4.03125 8.01562 3.5625 8.01562 3C8.01562 2.48438 8.4375 2.01562 9 2.01562ZM9.98438 16.0312H5.01562C4.45312 16.0312 3.98438 15.5625 3.98438 15C3.98438 14.4844 4.45312 14.0156 5.01562 14.0156H9.98438C10.5469 14.0156 11.0156 14.4844 11.0156 15C11.0156 15.5625 10.5469 16.0312 9.98438 16.0312ZM12.9844 12H5.01562C4.45312 12 3.98438 11.5781 3.98438 11.0156C3.98438 10.4531 4.45312 10.0312 5.01562 10.0312H12.9844C13.5469 10.0312 14.0156 10.4531 14.0156 11.0156C14.0156 11.5781 13.5469 12 12.9844 12ZM12.9844 8.01562H5.01562C4.45312 8.01562 3.98438 7.54688 3.98438 7.03125C3.98438 6.46875 4.45312 6 5.01562 6H12.9844C13.5469 6 14.0156 6.46875 14.0156 7.03125C14.0156 7.54688 13.5469 8.01562 12.9844 8.01562Z" fill="#086375"/>
</svg>
