<svg width="20" height="20" viewBox="0 0 20 20" fill="none" xmlns="http://www.w3.org/2000/svg">
<path d="M19.0001 15.6955V9.58492C19.0001 8.9964 18.9996 8.70197 18.9265 8.42812C18.8617 8.18543 18.7554 7.95577 18.6115 7.74823C18.4491 7.51404 18.2234 7.31984 17.771 6.9323L12.371 2.30639C11.531 1.58686 11.1111 1.22727 10.6384 1.09043C10.222 0.969856 9.77806 0.969856 9.36159 1.09043C8.88931 1.22717 8.46995 1.58641 7.63128 2.30486L2.22949 6.9323C1.77709 7.31984 1.55142 7.51404 1.38904 7.74823C1.24514 7.95577 1.13799 8.18543 1.07321 8.42812C1.00012 8.70197 1.00012 8.99639 1.00012 9.58492V15.6955C1.00012 16.7218 1.00012 17.2348 1.17139 17.6396C1.39975 18.1794 1.83748 18.6087 2.38879 18.8323C2.80228 19 3.32646 19 4.37483 19C5.4232 19 5.94797 19 6.36145 18.8323C6.91276 18.6087 7.35037 18.1795 7.57874 17.6397C7.75001 17.2349 7.75012 16.7217 7.75012 15.6954V14.5939C7.75012 13.3774 8.75748 12.3911 10.0001 12.3911C11.2428 12.3911 12.2501 13.3774 12.2501 14.5939V15.6954C12.2501 16.7217 12.2501 17.2349 12.4214 17.6397C12.6498 18.1795 13.0875 18.6087 13.6388 18.8323C14.0523 19 14.5765 19 15.6248 19C16.6732 19 17.198 19 17.6115 18.8323C18.1628 18.6087 18.6004 18.1794 18.8287 17.6396C19 17.2348 19.0001 16.7218 19.0001 15.6955Z" stroke="black" stroke-opacity="0.45" stroke-width="2" stroke-linecap="round" stroke-linejoin="round"/>
</svg>
