<svg width="18" height="12" viewBox="0 0 18 12" fill="none" xmlns="http://www.w3.org/2000/svg">
<path d="M0.984375 12H17.0156C17.5312 12 18 11.5312 18 11.0156C18 10.4531 17.5312 9.98438 17.0156 9.98438H0.984375C0.46875 9.98438 0 10.4531 0 11.0156C0 11.5312 0.46875 12 0.984375 12ZM0.984375 6.98438H17.0156C17.5312 6.98438 18 6.5625 18 6C18 5.4375 17.5312 5.01562 17.0156 5.01562H0.984375C0.46875 5.01562 0 5.4375 0 6C0 6.5625 0.46875 6.98438 0.984375 6.98438ZM0 0.984375C0 1.54688 0.46875 2.01562 0.984375 2.01562H17.0156C17.5312 2.01562 18 1.54688 18 0.984375C18 0.46875 17.5312 0 17.0156 0H0.984375C0.46875 0 0 0.46875 0 0.984375Z" fill="black" fill-opacity="0.45"/>
</svg>
